<?xml version="1.0" encoding="utf-8"?>
<!-- Generator: Adobe Illustrator 15.1.0, SVG Export Plug-In . SVG Version: 6.00 Build 0)  -->
<!DOCTYPE svg PUBLIC "-//W3C//DTD SVG 1.1//EN" "http://www.w3.org/Graphics/SVG/1.1/DTD/svg11.dtd">
<svg version="1.1" id="Calque_1" xmlns="http://www.w3.org/2000/svg" xmlns:xlink="http://www.w3.org/1999/xlink" x="0px" y="0px"
	 width="440.201px" height="98.539px" viewBox="76.355 355.5 440.201 98.539" enable-background="new 76.355 355.5 440.201 98.539"
	 xml:space="preserve">
<g>
	<rect x="76.51" y="416.403" fill="#F58874" width="140.268" height="3.478"/>
	<rect x="382.549" y="416.403" fill="#F58874" width="134.008" height="3.478"/>
	<g>
		<path fill="#5A6870" d="M129.371,368.101c-5.178,0-9.429,3.941-9.429,8.811c0,4.946,4.174,8.811,9.429,8.811
			c5.332,0,9.429-3.864,9.429-8.811C138.8,372.042,134.626,368.101,129.371,368.101z M129.371,383.248
			c-3.71,0-6.646-2.859-6.646-6.26c0-3.555,2.859-6.26,6.646-6.26s6.646,2.705,6.646,6.26
			C136.017,380.389,133.081,383.248,129.371,383.248z"/>
		<path fill="#5A6870" d="M195.757,368.101c-5.178,0-9.429,3.941-9.429,8.811c0,4.946,4.174,8.811,9.429,8.811
			c5.332,0,9.429-3.864,9.429-8.811C205.185,372.042,200.934,368.101,195.757,368.101z M195.757,383.248
			c-3.71,0-6.646-2.859-6.646-6.26c0-3.555,2.859-6.26,6.646-6.26s6.646,2.705,6.646,6.26
			C202.403,380.389,199.388,383.248,195.757,383.248z"/>
		<rect x="209.05" y="368.488" fill="#5A6870" width="2.781" height="16.925"/>
		<polygon fill="#5A6870" points="79.137,368.488 76.355,368.488 76.355,385.412 84.469,385.412 84.469,382.94 79.137,382.94 		"/>
		<path fill="#5A6870" d="M152.865,373.434c0-1.777-0.928-3.323-2.474-4.174c-1.468-0.772-3.323-0.772-4.714-0.772h-2.937v16.925
			h2.782v-6.878h0.464l5.101,6.878h3.4l-5.564-7.188C151.319,377.761,152.865,375.829,152.865,373.434z M145.909,376.216h-0.386
			v-5.256h0.231c3.014,0,4.405,0.851,4.405,2.628C150.237,375.365,148.924,376.216,145.909,376.216z"/>
		<polygon fill="#5A6870" points="172.958,370.96 177.054,370.96 177.054,385.412 179.837,385.412 179.837,370.96 184.01,370.96 
			184.01,368.488 172.958,368.488 		"/>
		<path fill="#5A6870" d="M113.837,376.293c0.928-0.695,1.469-2.01,1.469-3.015c0-3.245-2.164-4.791-6.724-4.791h-2.473v16.925
			h4.405c3.091,0,6.337-1.313,6.337-4.869C116.928,378.612,115.615,376.911,113.837,376.293z M108.969,370.883h0.309
			c2.087,0,3.4,0.387,3.4,2.396c0,2.01-1.313,2.396-3.478,2.396h-0.231V370.883z M110.359,382.94h-1.391v-5.023h1.005
			c1.854,0,4.173,0.463,4.173,2.473C114.146,382.089,112.833,382.94,110.359,382.94z"/>
		<path fill="#5A6870" d="M93.821,368.565l-8.115,16.925h2.938l1.932-4.096h7.729l1.932,4.096h2.938l-8.115-16.925H93.821
			L93.821,368.565z M91.811,378.92l2.705-5.95l2.705,5.95H91.811z"/>
		<path fill="#5A6870" d="M163.761,368.565l-8.114,16.925h2.937l1.932-4.096h7.729l1.933,4.096h2.937l-8.115-16.925H163.761
			L163.761,368.565z M161.753,378.92l2.704-5.95l2.705,5.95H161.753z"/>
		<path fill="#5A6870" d="M345.684,368.565l-8.114,16.925h2.937l1.933-4.096h7.806l1.932,4.096h2.937l-8.114-16.925H345.684z
			 M343.598,378.92l2.705-5.95l2.704,5.95H343.598z"/>
		<path fill="#5A6870" d="M273.967,368.488h-3.941v16.925h3.864c6.26,0,10.201-3.246,10.201-8.578
			C284.091,371.734,280.149,368.488,273.967,368.488z M273.348,382.94h-0.464V370.96h0.464c3.632,0,7.96,1.005,7.96,5.951
			S276.98,382.94,273.348,382.94z"/>
		<rect x="444.298" y="368.488" fill="#5A6870" width="2.782" height="16.925"/>
		<path fill="#5A6870" d="M432.859,379.075h4.482c-0.309,2.396-3.091,4.25-5.409,4.25c-3.479,0-6.492-2.937-6.492-6.337
			c0-3.555,2.937-6.337,6.646-6.337c2.009,0,4.019,1.005,5.255,2.55l0.232,0.232l2.009-1.777l-0.231-0.232
			c-1.777-2.009-4.482-3.246-7.342-3.246c-5.178,0-9.352,3.941-9.352,8.888c0,4.792,4.174,8.733,9.119,8.733
			c4.946,0,8.578-3.479,8.578-8.192v-0.928h-7.573v2.396H432.859z"/>
		<path fill="#5A6870" d="M410.525,368.101c-5.179,0-9.429,3.941-9.429,8.811c0,4.946,4.173,8.811,9.429,8.811
			c5.332,0,9.428-3.864,9.428-8.811C420.031,372.042,415.78,368.101,410.525,368.101z M410.525,383.248
			c-3.71,0-6.646-2.859-6.646-6.26c0-3.555,2.859-6.26,6.646-6.26c3.786,0,6.646,2.705,6.646,6.26
			C417.249,380.389,414.234,383.248,410.525,383.248z"/>
		<path fill="#5A6870" d="M469.801,376.911c0-4.869-4.251-8.811-9.429-8.811s-9.429,3.941-9.429,8.811
			c0,4.946,4.174,8.811,9.429,8.811c1.7,0,3.478-0.541,4.946-1.392l1.391,1.392h3.556l-3.015-2.782
			C468.873,381.394,469.801,379.23,469.801,376.911z M465.318,381.084l-2.628-2.473h-3.632l4.25,3.864
			c-0.85,0.464-1.932,0.695-2.937,0.695c-3.709,0-6.646-2.859-6.646-6.26c0-3.555,2.859-6.26,6.646-6.26s6.646,2.705,6.646,6.26
			C467.018,378.225,466.477,379.925,465.318,381.084z"/>
		<path fill="#5A6870" d="M484.02,378.379c0,3.246-1.313,4.792-3.941,4.792s-3.941-1.546-3.941-4.792v-9.969h-2.782v10.665
			c0,3.941,2.705,6.646,6.724,6.646s6.724-2.705,6.724-6.646V368.41h-2.782V378.379L484.02,378.379z"/>
		<path fill="#5A6870" d="M512.228,375.134l-1.236-0.464c-1.469-0.541-2.241-1.236-2.241-2.01c0-1.236,1.313-2.009,2.628-2.009
			c1.159,0,1.932,0.386,2.55,1.391l0.155,0.232l2.241-1.237l-0.155-0.309c-1.004-1.7-2.705-2.628-4.791-2.628
			c-2.628,0-5.487,1.623-5.487,4.56c0,2.474,2.01,3.633,4.019,4.405l1.236,0.464c1.7,0.695,2.782,1.391,2.782,2.782
			c0,1.623-1.313,2.859-2.937,2.859c-0.928,0-1.777-0.31-2.318-0.928c-0.464-0.541-0.772-1.159-0.772-1.854v-0.387l-2.86,0.541
			l0.078,0.31c0.386,2.782,2.782,4.869,5.719,4.869c3.323,0,5.873-2.319,5.873-5.41C516.788,377.22,514.469,375.984,512.228,375.134
			z"/>
		<polygon fill="#5A6870" points="393.832,368.488 390.972,368.488 390.972,385.412 399.087,385.412 399.087,382.94 393.832,382.94 
					"/>
		<polygon fill="#5A6870" points="491.594,385.412 501.64,385.412 501.64,382.94 494.454,382.94 494.454,377.375 501.409,377.375 
			501.409,374.902 494.454,374.902 494.454,370.96 501.64,370.96 501.64,368.488 491.594,368.488 		"/>
		<path fill="#5A6870" d="M312.685,373.434c0-1.777-0.928-3.323-2.474-4.174c-1.468-0.772-3.322-0.772-4.714-0.772h-2.937v16.925
			h2.782v-6.878h0.464l5.178,6.878h3.4l-5.564-7.188C311.062,377.761,312.685,375.829,312.685,373.434z M305.73,376.216h-0.387
			v-5.256h0.231c3.015,0,4.405,0.851,4.405,2.628C310.057,375.365,308.744,376.216,305.73,376.216z"/>
		<path fill="#5A6870" d="M252.482,375.134l-1.236-0.464c-1.469-0.541-2.241-1.236-2.241-2.01c0-1.236,1.313-2.009,2.627-2.009
			c1.159,0,1.933,0.386,2.551,1.391l0.154,0.232l2.241-1.237l-0.154-0.309c-1.005-1.7-2.705-2.628-4.792-2.628
			c-2.627,0-5.409,1.623-5.409,4.56c0,2.474,2.009,3.633,4.019,4.405l1.236,0.464c1.7,0.695,2.782,1.391,2.782,2.782
			c0,1.623-1.313,2.859-2.937,2.859c-0.928,0-1.777-0.31-2.318-0.928c-0.464-0.541-0.773-1.159-0.773-1.854v-0.387l-2.859,0.541
			l0.077,0.31c0.387,2.782,2.782,4.869,5.719,4.869c3.323,0,5.874-2.319,5.874-5.41C256.965,377.22,254.723,375.984,252.482,375.134
			z"/>
		<polygon fill="#5A6870" points="288.032,385.412 298.079,385.412 298.079,382.94 290.891,382.94 290.891,377.375 297.847,377.375 
			297.847,374.902 290.891,374.902 290.891,370.96 298.079,370.96 298.079,368.488 288.032,368.488 		"/>
		<polygon fill="#5A6870" points="231.847,385.412 241.817,385.412 241.817,382.94 234.63,382.94 234.63,377.375 241.662,377.375 
			241.662,374.902 234.63,374.902 234.63,370.96 241.817,370.96 241.817,368.488 231.847,368.488 		"/>
		<path fill="#5A6870" d="M227.056,373.434c0-1.777-0.928-3.323-2.474-4.174c-1.468-0.772-3.323-0.772-4.714-0.772h-2.937v16.925
			h2.781v-6.878h0.464l5.101,6.878h3.4l-5.563-7.188C225.433,377.761,227.056,375.829,227.056,373.434z M220.023,376.216h-0.387
			v-5.256h0.232c3.014,0,4.405,0.851,4.405,2.628C224.351,375.365,223.115,376.216,220.023,376.216z"/>
		<polygon fill="#5A6870" points="354.804,370.96 358.977,370.96 358.977,385.412 361.76,385.412 361.76,370.96 365.932,370.96 
			365.932,368.488 354.804,368.488 		"/>
		<path fill="#5A6870" d="M377.679,368.101c-5.178,0-9.428,3.941-9.428,8.811c0,4.946,4.173,8.811,9.428,8.811
			c5.333,0,9.429-3.864,9.429-8.811C387.108,372.042,382.857,368.101,377.679,368.101z M377.679,383.248
			c-3.709,0-6.646-2.859-6.646-6.26c0-3.555,2.86-6.26,6.646-6.26c3.787,0,6.646,2.705,6.646,6.26
			C384.326,380.389,381.312,383.248,377.679,383.248z"/>
		<polygon fill="#5A6870" points="325.977,380.543 331.156,368.488 332.392,368.488 335.947,385.412 333.088,385.412 
			331.156,375.211 326.674,385.412 325.977,385.412 325.359,385.412 320.877,375.211 318.945,385.412 316.086,385.412 
			319.64,368.488 320.877,368.488 326.055,380.543 		"/>
	</g>
	<g>
		<path fill="#5A6870" d="M260.829,443.219h-1.855v10.511h1.855v-4.173h0.54c2.551,0,4.097-1.159,4.097-3.169
			C265.543,444.147,264.074,443.219,260.829,443.219z M263.688,446.311c0,1.082-0.773,1.546-2.705,1.546h-0.154v-3.092h0.077
			C262.915,444.842,263.688,445.306,263.688,446.311z"/>
		<path fill="#5A6870" d="M303.102,446.311c0-1.082-0.618-2.087-1.623-2.628c-0.928-0.464-2.087-0.464-3.014-0.464h-1.933v10.511
			h1.854v-4.25h0.155l3.246,4.25h2.318l-3.556-4.405C302.175,448.939,303.102,447.78,303.102,446.311z M301.325,446.388
			c0,1.082-0.773,1.546-2.705,1.546h-0.154v-3.092h0.077C300.474,444.842,301.325,445.306,301.325,446.388z"/>
		<rect x="314.076" y="443.219" fill="#5A6870" width="1.855" height="10.511"/>
		<path fill="#5A6870" d="M330.383,447.316l-0.772-0.31c-0.928-0.309-1.392-0.695-1.392-1.159c0-0.695,0.851-1.159,1.623-1.159
			c0.696,0,1.159,0.231,1.546,0.851l0.154,0.231l1.546-0.851l-0.154-0.231c-0.618-1.082-1.777-1.623-3.092-1.623
			c-1.7,0-3.478,1.005-3.478,2.859c0,1.546,1.313,2.241,2.551,2.782l0.772,0.31c1.082,0.386,1.7,0.85,1.7,1.623
			c0,0.927-0.772,1.7-1.777,1.7c-0.541,0-1.082-0.232-1.469-0.541c-0.309-0.31-0.464-0.696-0.464-1.082v-0.31l-1.932,0.387v0.231
			c0.232,1.777,1.777,3.015,3.633,3.015c2.163,0,3.786-1.469,3.786-3.4C333.32,448.552,331.774,447.78,330.383,447.316z"/>
		<path fill="#5A6870" d="M280.69,443.219l-5.333,10.511h2.087l1.236-2.473h4.715l1.236,2.473h2.087l-5.333-10.511H280.69z
			 M279.531,449.557l1.545-3.169l1.546,3.169H279.531z"/>
	</g>
	<g>
		<path fill="#F58874" d="M350.94,418.257L350.94,418.257h12.751c0,0,0.773,0,0.773-0.618c0.231-9.97-12.52-10.355-13.834,0.464
			C350.553,418.257,350.94,418.257,350.94,418.257L350.94,418.257z M369.488,419.031L369.488,419.031h-18.625c0,0-0.31,0-0.31,0.231
			c-1.623,16.384,15.379,17.079,18.857,9.119l0.541,0.154c-1.159,3.169-4.097,5.101-7.033,5.874
			c-22.025,4.405-23.726-23.185-5.719-24.885C366.937,408.674,369.333,416.557,369.488,419.031z"/>
		<path fill="#F58874" d="M315.313,414.471c0,6.491,0,13.061,0,19.552h4.404v-16.151c0-5.642,3.479-7.42,7.033-7.574
			c4.946-0.309,6.724,2.01,6.724,6.569c0,5.719,0,11.438,0,17.156h4.328c0-5.719,0-11.438,0-17.156c0-4.792-1.546-7.574-7.574-7.96
			c-2.55-0.155-5.332,0.231-9.429,2.859c-0.464,0.309-1.004,0.772-1.004,0v-2.474c0-0.154,0-0.231-0.31-0.231l-4.019,0.464
			L315.313,414.471z"/>
		<polygon fill="#F58874" points="278.139,414.239 272.112,428.458 271.88,429.076 264.461,413.234 262.838,409.602 
			257.969,409.602 259.592,413.389 269.33,434.1 270.72,434.1 279.376,413.698 281.154,409.602 280.149,409.602 		"/>
		<polygon fill="#F58874" points="288.341,397.546 288.341,397.546 299.084,407.438 299.469,407.283 295.992,397.546 		"/>
		<path fill="#F58874" d="M289.655,418.257L289.655,418.257h12.752c0,0,0.772,0,0.772-0.618c0.231-9.97-12.521-10.355-13.834,0.464
			C289.345,418.257,289.655,418.257,289.655,418.257L289.655,418.257z M308.203,419.031L308.203,419.031h-18.625
			c0,0-0.31,0-0.31,0.231c-1.623,16.384,15.38,17.079,18.857,9.119l0.541,0.154c-1.159,3.169-4.097,5.101-7.033,5.874
			c-22.025,4.405-23.726-23.185-5.719-24.885C305.652,408.674,308.126,416.557,308.203,419.031z"/>
		<path fill="#F58874" d="M243.981,416.866L243.981,416.866l-6.183-13.757c-0.078-0.231-0.155-0.231-0.232,0l-5.796,13.757H243.981
			L243.981,416.866z M224.815,434.177h-1.855c5.564-13.292,11.052-26.585,16.461-39.877h1.701l18.006,39.877h-7.65l-7.033-16.074
			h-13.138L224.815,434.177z"/>
	</g>
</g>
</svg>
